# xmcd CD database file
#
# Track frame offsets:
#	150
#	11835
#	26035
#	42595
#	53975
#	70180
#	84397
#	102747
#	118440
#	134795
#	149555
#	171830
#	185567
#
# Disc length: 2731 seconds
#
# Revision: 0
# Processed by: cddbd v1.5.2PL0 Copyright (c) Steve Scherf et al.
# Submitted via: CDex 1.51
#
DISCID=d10aa90d
DTITLE=Diane Craig - Fortunes Told
DYEAR=2002
DGENRE=Country
TTITLE0=Highway Of The Blues
TTITLE1=Another Old Poet
TTITLE2=Dust Bunnies
TTITLE3=I'll Take The Highway
TTITLE4=Your Mama Ain't Wrong
TTITLE5=What's Gone Wrong
TTITLE6=Fortunes Told
TTITLE7=Leavin' Alabama
TTITLE8=The Ghost Of Townes Van Zandt
TTITLE9=I Guess I Always Will
TTITLE10=The Wild Magnolia
TTITLE11=Betwen The Sun and My Shadow
TTITLE12=The Letter
EXTD=YEAR: 2002
EXTT0=
EXTT1=
EXTT2=
EXTT3=
EXTT4=
EXTT5=
EXTT6=
EXTT7=
EXTT8=
EXTT9=
EXTT10=
EXTT11=
EXTT12=
PLAYORDER=
